#!OML:ASF Y:\EmotionMaleHayes\Project 1\Capture day 1\Session 1\Male1.ASF
:FULLY-SPECIFIED
:DEGREES
1280
root -28.0332 17.1104 2.39578 -688.341 83.1734 32.0234
lowerback 8.21123 1.72542 -6.55
upperback 2.19361 1.794 -0.831451
thorax -2.4929 0.947455 2.62831
lowerneck -23.9948 0.99405 3.91361
upperneck 20.0028 -0.604113 2.54871
head 10.3775 0.388265 0.185528
rclavicle 1.37907e-014 1.88845e-015
rhumerus -43.4059 2.34571 -87.3089
rradius 49.8269
rwrist -11.1771
rhand -18.8811 -29.3369
rfingers 7.12502
rthumb 7.41994 -59.1868
lclavicle 1.37907e-014 1.88845e-015
lhumerus -39.4524 -27.9329 102.854
lradius 55.7458
lwrist 8.11807
lhand -22.7794 -26.6397
lfingers 7.12502
lthumb 3.65618 3.30865
rfemur 4.41162 -2.22414 12.717
rtibia 8.94998
rfoot -19.4863 -0.919379
rtoes 18.1205
lfemur 7.84444 7.01701 -18.1486
ltibia 3.13247
lfoot -15.1595 17.5572
ltoes -3.96665
1281
root -28.0411 17.1143 2.38169 -687.835 83.2623 32.5666
lowerback 8.26103 1.74314 -6.39648
upperback 2.20986 1.82635 -0.909549
thorax -2.49987 0.96336 2.45681
lowerneck -23.9937 0.918201 3.92107
upperneck 19.7911 -0.71266 2.57355
head 10.2999 0.336586 0.175026
rclavicle -2.50966e-015 1.41137e-014
rhumerus -43.2767 2.66145 -87.6637
rradius 49.8195
rwrist -11.4878
rhand -19.071 -28.822
rfingers 7.12502
rthumb 7.23659 -58.6783
lclavicle -2.50966e-015 1.41137e-014
lhumerus -39.5157 -28.3808 102.973
lradius 55.5765
lwrist 7.7441
lhand -22.6974 -26.5384
lfingers 7.12502
lthumb 3.73535 3.40862
rfemur 4.43184 -2.41561 12.6292
rtibia 8.94547
rfoot -19.3084 -0.882657
rtoes 17.7942
lfemur 7.88384 6.92098 -18.2642
ltibia 3.0065
lfoot -14.8717 17.76
ltoes -4.62155
1282
root -28.0481 17.1138 2.36966 -686.576 83.2733 33.7262
lowerback 8.03235 1.77538 -6.59367
upperback 2.28267 1.87691 -0.842496
thorax -2.30945 0.982533 2.63855
lowerneck -24.0879 0.899562 3.92849
upperneck 19.645 -0.691226 2.35004
head 10.2612 0.313604 0.0964885
rclavicle 5.61567e-015 -6.26172e-015
rhumerus -42.9977 3.12178 -87.8061
rradius 49.834
rwrist -11.8517
rhand -19.0893 -28.2514
rfingers 7.12502
rthumb 7.21898 -58.1083
lclavicle 5.61567e-015 -6.26172e-015
lhumerus -39.3553 -28.6979 103.231
lradius 55.3432
lwrist 7.68244
lhand -22.8215 -26.2354
lfingers 7.12502
lthumb 3.61549 3.71365
rfemur 4.2337 -2.48012 12.4511
rtibia 9.0711
rfoot -19.2081 -0.942169
rtoes 17.6265
lfemur 7.79055 6.72148 -18.5345
ltibia 2.83396
lfoot -14.8503 17.9945
ltoes -3.54031
1283
root -28.0542 17.1101 2.36256 -683.665 83.1445 36.5219
lowerback 7.79856 1.79279 -6.91273
upperback 2.32105 1.89577 -0.984951
thorax -2.14559 0.988378 2.6739
lowerneck -24.1846 0.944022 4.0525
upperneck 19.5692 -0.657803 2.26505
head 10.2506 0.326044 0.0511863
rclavicle 1.06723e-014 2.3556e-014
rhumerus -42.7954 3.46339 -88.1855
rradius 50.0431
rwrist -11.9472
rhand -19.1049 -28.9458
rfingers 7.12502
rthumb 7.20387 -58.8031
lclavicle 1.06723e-014 2.3556e-014
lhumerus -39.1519 -29.2982 103.295
lradius 54.8107
lwrist 7.79417
lhand -23.5526 -26.5334
lfingers 7.12502
lthumb 2.90939 3.42653
rfemur 4.05725 -2.50303 12
rtibia 9.13448
rfoot -19.0989 -1.00191
rtoes 17.8906
lfemur 7.70062 6.55743 -19.0728
ltibia 2.61073
lfoot -14.782 18.2259
ltoes -2.85786
1284
root -28.0587 17.1079 2.35714 -682.529 83.158 37.6634
lowerback 7.72968 1.81439 -7.00535
upperback 2.3342 1.92398 -1.03293
thorax -2.09735 1.00136 2.67503
lowerneck -24.1032 0.961667 4.08023
upperneck 19.4695 -0.630343 2.24387
head 10.2 0.334937 0.0425951
rclavicle -1.98536e-014 1.23246e-014
rhumerus -42.6323 3.76457 -88.4663
rradius 50.0834
rwrist -11.7498
rhand -19.0923 -29.549
rfingers 7.12502
rthumb 7.21605 -59.4059
lclavicle -1.98536e-014 1.23246e-014
lhumerus -38.9946 -29.8483 103.418
lradius 54.0845
lwrist 7.68805
lhand -23.8327 -27.042
lfingers 7.12502
lthumb 2.63889 2.92137
rfemur 4.09151 -2.40935 11.8817
rtibia 9.09391
rfoot -19.0416 -1.17357
rtoes 17.9198
lfemur 7.77757 6.48993 -19.2211
ltibia 2.41056
lfoot -14.7885 18.219
ltoes -2.16571
1285
root -28.0623 17.1071 2.35009 -683.619 83.2887 36.5914
lowerback 7.7345 1.87009 -6.86066
upperback 2.3002 2.00655 -0.922085
thorax -2.14332 1.04298 2.70011
lowerneck -23.8574 0.940726 3.9747
upperneck 19.299 -0.583175 2.16079
head 10.0938 0.331414 0.0354347
rclavicle 1.58034e-014 -4.57205e-015
rhumerus -42.6034 4.14706 -88.5642
rradius 50.0794
rwrist -11.7626
rhand -18.9079 -29.4284
rfingers 7.12502
rthumb 7.39402 -59.2792
lclavicle 1.58034e-014 -4.57205e-015
lhumerus -38.953 -29.9946 103.599
lradius 53.4994
lwrist 7.36592
lhand -23.3081 -27.1751
lfingers 7.12502
lthumb 3.14559 2.78147
rfemur 4.11147 -2.35323 12.0887
rtibia 9.08834
rfoot -19.0007 -1.21838
rtoes 17.8262
lfemur 7.85819 6.58519 -18.9625
ltibia 2.30975
lfoot -14.9016 18.0204
ltoes -1.07237
1286
root -28.0666 17.107 2.34244 -684.175 83.3353 36.0735
lowerback 7.76376 1.95801 -6.7994
upperback 2.31082 2.12666 -0.873949
thorax -2.16014 1.10265 2.7028
lowerneck -23.8829 0.921263 3.88934
upperneck 19.265 -0.582102 2.16419
head 10.0858 0.324767 0.0505592
rclavicle -1.80521e-014 2.21645e-014
rhumerus -42.6118 4.55701 -88.706
rradius 50.2812
rwrist -12.0685
rhand -18.8187 -29.535
rfingers 7.12502
rthumb 7.48018 -59.3827
lclavicle -1.80521e-014 2.21645e-014
lhumerus -38.9773 -30.1979 103.684
lradius 53.1221
lwrist 7.30799
lhand -22.8235 -26.9475
lfingers 7.12502
lthumb 3.61357 3.00157
rfemur 4.12003 -2.31104 12.1518
rtibia 9.09894
rfoot -18.9249 -1.15756
rtoes 18.2228
lfemur 7.94916 6.70384 -18.8302
ltibia 2.18898
lfoot -14.7552 17.9405
ltoes -0.795469
1287
root -28.0729 17.1078 2.33486 -685.794 83.492 34.5429
lowerback 7.83265 2.02583 -6.62068
upperback 2.37985 2.23061 -0.769438
thorax -2.13472 1.15182 2.6999
lowerneck -23.7819 0.876061 3.58992
upperneck 19.0922 -0.604576 2.4827
head 10.0079 0.327122 0.20777
rclavicle 2.34814e-015 -5.1684e-015
rhumerus -42.4287 4.90278 -88.8018
rradius 50.2793
rwrist -12.1756
rhand -18.7716 -29.4672
rfingers 7.12502
rthumb 7.52566 -59.3133
lclavicle 2.34814e-015 -5.1684e-015
lhumerus -38.9705 -30.5261 103.785
lradius 52.6559
lwrist 7.37022
lhand -22.9152 -26.576
lfingers 7.12502
lthumb 3.52502 3.37457
rfemur 4.21506 -2.15339 12.4381
rtibia 9.04575
rfoot -18.8782 -1.27186
rtoes 18.5138
lfemur 8.06462 6.78145 -18.4976
ltibia 2.12087
lfoot -14.6432 17.8947
ltoes -0.831463
1288
root -28.0812 17.1092 2.32621 -687.353 83.6947 33.0639
lowerback 7.96315 2.0545 -6.3735
upperback 2.39906 2.28008 -0.667284
thorax -2.18747 1.1767 2.65883
lowerneck -23.7693 0.849842 3.47579
upperneck 19.0679 -0.617843 2.55985
head 9.99737 0.321355 0.251467
rclavicle -2.77305e-014 1.78906e-014
rhumerus -42.2226 5.2014 -88.8639
rradius 50.0785
rwrist -12.0413
rhand -18.4999 -29.7685
rfingers 7.12502
rthumb 7.78789 -59.605
lclavicle -2.77305e-014 1.78906e-014
lhumerus -38.8205 -30.6461 103.776
lradius 51.9401
lwrist 7.10037
lhand -22.8459 -26.29
lfingers 7.12502
lthumb 3.5919 3.65951
rfemur 4.29032 -2.07941 12.7167
rtibia 9.02747
rfoot -18.8887 -1.19742
rtoes 18.5054
lfemur 8.12497 6.82044 -18.1837
ltibia 2.11211
lfoot -14.6556 17.8555
ltoes -1.07474
1289
root -28.0897 17.1122 2.31647 -684.251 83.6685 36.2109
lowerback 8.09405 2.05932 -6.5876
upperback 2.38337 2.25802 -0.775731
thorax -2.27725 1.17005 2.66362
lowerneck -23.9448 0.837451 3.57434
upperneck 19.1895 -0.656586 2.44859
head 10.0713 0.301047 0.191426
rclavicle -9.30561e-015 6.75868e-015
rhumerus -42.0914 5.5115 -89.0143
rradius 49.9741
rwrist -11.9926
rhand -18.1628 -30.2356
rfingers 7.12502
rthumb 8.11318 -60.0598
lclavicle -9.30561e-015 6.75868e-015
lhumerus -38.5907 -30.6824 103.617
lradius 51.141
lwrist 7.23692
lhand -22.1723 -26.0654
lfingers 7.12502
lthumb 4.24242 3.87213
rfemur 4.30996 -2.23785 12.2372
rtibia 9.05099
rfoot -18.7646 -0.917293
rtoes 18.5773
lfemur 8.157 6.43404 -18.7292
ltibia 1.92383
lfoot -14.6723 18.1213
ltoes -0.750353
1290
root -28.0961 17.1133 2.30758 -680.333 83.659 40.1306
lowerback 8.14488 2.02391 -6.83173
upperback 2.37481 2.18611 -0.922823
thorax -2.30973 1.13735 2.65315
lowerneck -24.0694 0.813433 3.73121
upperneck 19.256 -0.718259 2.29745
head 10.1158 0.267944 0.103451
rclavicle -1.53064e-014 5.86415e-015
rhumerus -41.8685 5.83132 -89.2196
rradius 49.8071
rwrist -11.9027
rhand -17.9689 -29.4455
rfingers 7.12502
rthumb 8.30032 -59.2624
lclavicle -1.53064e-014 5.86415e-015
lhumerus -38.3409 -30.5924 103.371
lradius 50.2971
lwrist 7.07641
lhand -21.7941 -25.8042
lfingers 7.12502
lthumb 4.60762 4.12564
rfemur 4.35202 -2.4507 11.7098
rtibia 9.00427
rfoot -18.593 -0.890919
rtoes 18.8086
lfemur 8.12267 6.02493 -19.3298
ltibia 1.77315
lfoot -14.6987 18.2828
ltoes 0.0273579
1291
root -28.1006 17.1102 2.3045 -679.917 83.9109 40.5374
lowerback 8.15718 1.97879 -6.67704
upperback 2.37494 2.13781 -0.903295
thorax -2.3075 1.11269 2.59198
lowerneck -23.9723 0.77249 3.77756
upperneck 19.1438 -0.75934 2.19844
head 10.0568 0.236422 0.0534663
rclavicle -1.36167e-014 -1.19271e-015
rhumerus -41.6523 6.23312 -89.3905
rradius 49.6282
rwrist -11.7192
rhand -17.7824 -28.6192
rfingers 7.12502
rthumb 8.48033 -58.4289
lclavicle -1.36167e-014 -1.19271e-015
lhumerus -38.0456 -30.3159 103.102
lradius 49.3072
lwrist 6.68493
lhand -21.5136 -25.8171
lfingers 7.12502
lthumb 4.87843 4.1067
rfemur 4.43977 -2.4486 11.8673
rtibia 8.84197
rfoot -18.5018 -1.03323
rtoes 19.6663
lfemur 8.06168 6.15009 -19.1066
ltibia 1.81161
lfoot -14.4629 18.0252
ltoes -0.126491
1292
root -28.1043 17.108 2.30637 -680.496 84.0957 39.9592
lowerback 8.15322 1.97665 -6.59915
upperback 2.38503 2.14325 -0.806886
thorax -2.29649 1.11411 2.64833
lowerneck -23.831 0.723176 3.64757
upperneck 18.9916 -0.768413 2.1894
head 9.97658 0.216102 0.0687873
rclavicle 5.62809e-015 1.75924e-014
rhumerus -41.5451 6.66604 -89.4543
rradius 49.6126
rwrist -11.6779
rhand -17.7304 -28.7112
rfingers 7.12502
rthumb 8.53051 -58.5188
lclavicle 5.62809e-015 1.75924e-014
lhumerus -37.8629 -30.1404 103.024
lradius 48.3656
lwrist 6.11735
lhand -21.9037 -25.2967
lfingers 7.12502
lthumb 4.50178 4.63549
rfemur 4.5009 -2.32739 12.1091
rtibia 8.71467
rfoot -18.47 -1.19442
rtoes 19.8098
lfemur 8.06328 6.41566 -18.7737
ltibia 1.817
lfoot -14.1639 17.7629
ltoes -0.871352
